<?xml version="1.0" encoding="UTF-8"?><svg id="Layer_2" xmlns="http://www.w3.org/2000/svg" width="814.31" height="459.99" viewBox="0 0 814.31 459.99"><defs><style>.cls-1{fill:#8c91a9;}.cls-1,.cls-2,.cls-3,.cls-4,.cls-5,.cls-6,.cls-7,.cls-8,.cls-9,.cls-10,.cls-11,.cls-12,.cls-13,.cls-14,.cls-15,.cls-16,.cls-17,.cls-18,.cls-19{stroke-width:0px;}.cls-2{fill:#091346;}.cls-3{fill:#a7aabd;}.cls-4{fill:#0b1547;}.cls-5{fill:#171d48;}.cls-6{fill:#0c1648;}.cls-7{fill:#6e7492;}.cls-8{fill:#151a46;}.cls-9{fill:#0c1548;}.cls-10{fill:#f7823b;}.cls-11{fill:#111a4b;}.cls-12{fill:#0d1749;}.cls-13{fill:#131945;}.cls-14{fill:#fcfcfd;}.cls-15{fill:#0d1648;}.cls-16{fill:#0a1447;}.cls-17{fill:#161c47;}.cls-18{fill:#151b47;}.cls-19{fill:#c5c6d0;}</style></defs><g id="Layer_1-2"><path class="cls-2" d="M500.85.48c28.23,2.91,47.24,25.42,52,44.24,3.7,14.64,3.08,29-3.03,42.92-4.23,9.63-11.11,17.09-19.61,23.14-5.36,3.82-11.17,6.82-17.53,9.51,5.09,6.57,11.02,11.86,18.31,15.58,7.32,3.74,15.14,5.4,23.29,5.41.53,1.88.74,29.25.29,35.22-.66.03-1.35.11-2.04.09-28.45-.6-51.09-12.33-67.95-35.3-9.94-13.54-15.58-28.69-17.39-45.32-.28-2.59-.42-5.2-.65-8.05,1.19,0,2.05,0,2.91,0,8.4-.02,16.8.13,25.19-.11,15.52-.43,27.07-14.9,24.7-30.23-1.66-10.77-11.29-20.81-22.75-21.72-2.23-.18-4.46-.39-6.69-.4-12.79-.04-25.59-.02-38.38-.02h-2.89v141.14h-35.48v-2.87c0-56.95,0-113.9,0-170.85,0-.96-.07-1.91-.1-2.87,27.67,0,55.34,0,83.02,0,1.6.16,3.2.32,4.8.48Z"/><path class="cls-2" d="M664,0c.47.18.92.48,1.4.53,24.1,2.44,43.44,13.59,58.78,32.09.15.18.26.4.57.86-9.15,7.27-18.31,14.55-27.66,21.99-11.92-14.7-27.31-21.29-46.03-19.87-13.9,1.05-25.22,7.32-34.69,17.42-18.19,19.38-18.62,53.11,2.28,73.06,7.29,6.95,15.56,12,25.47,14.03,9.89,2.03,19.71,1.65,29.32-1.65,9.56-3.28,17.2-9.28,23.65-17.15,9.27,7.35,18.4,14.59,27.54,21.84-.11.31-.14.56-.27.72-12.24,14.86-27.25,25.57-46.17,30.06-50.89,12.07-89.92-16.89-104.61-52.53-5.6-13.58-7.09-27.81-5.64-42.36,3.13-31.27,23.5-59.18,52.27-71.75,7.51-3.28,15.34-5.42,23.49-6.42,1.01-.12,2.25.23,3.03-.85h12c1.44.38,2.88,1.05,4.32,0C663.36,0,663.68,0,664,0Z"/><path class="cls-2" d="M341.05.48c12.31,1.28,23.94,4.7,34.67,10.99,9.49,5.57,17.55,12.78,24.54,21.23.15.18.24.41.47.79-9.17,7.29-18.34,14.58-27.52,21.87-19.88-26.04-58.8-25.9-80-3.41-19.1,20.26-19.51,54.53,2.47,75.25,19.97,18.82,56.62,20.38,77.47-5.87,9.17,7.27,18.35,14.55,27.52,21.82-23.1,30.7-62.52,40.6-98.26,28.64-38.04-12.74-62.48-52.25-58.76-92.12C247.44,38.94,282.05,3.71,322.82.49c1.92-.16,3.84-.32,5.75-.49,2.24,0,4.48,0,6.72,0,1.92.16,3.84.32,5.76.48Z"/><path class="cls-19" d="M307.91,450.67c.01.18.02.35.03.53h-15.36c-.03-.13-.04-.27-.02-.4,5.12-.04,10.23-.08,15.35-.13Z"/><path class="cls-3" d="M341.05.48c-1.92-.16-3.84-.32-5.76-.48,1.92,0,3.84,0,5.76,0,0,.16,0,.32,0,.48Z"/><path class="cls-1" d="M328.58,0c-1.92.16-3.84.32-5.75.49,0-.16,0-.32,0-.49,1.92,0,3.84,0,5.76,0Z"/><path class="cls-1" d="M500.85.48c-1.6-.16-3.2-.32-4.8-.48,1.6,0,3.2,0,4.8,0,0,.16,0,.32,0,.48Z"/><path class="cls-7" d="M663.04,0c-1.44,1.05-2.88.38-4.32,0h4.32Z"/><path class="cls-2" d="M175.27,3.27c25.19,56.69,50.32,113.25,75.46,169.82-1.64.6-31.5.85-37.73.32-18.79-42.36-37.63-84.82-56.71-127.82-19.06,42.95-37.88,85.39-56.73,127.87h-37.87C86.93,116.62,112.1,59.96,137.29,3.27h37.98Z"/><path class="cls-10" d="M194.17,173.17c-1.89.52-71.64.7-75.69.21-.03-1.5.02-3.07-.09-4.63-.24-3.18.5-6.06,1.82-9,11.69-26.11,23.26-52.28,34.87-78.42.31-.7.69-1.38,1.2-2.4.54,1.06.96,1.79,1.3,2.56,11.77,26.51,23.52,53.03,35.32,79.53.86,1.94,1.43,3.84,1.3,5.99-.12,2.06-.03,4.14-.03,6.15Z"/><path class="cls-8" d="M307.46,459.86c-5.12.04-10.23.08-15.35.13-.17-.34-.46-.66-.5-1.01-.08-.71-.04-1.44-.04-2.16,0-41.82,0-83.64,0-125.45,0-.94,0-1.88,0-2.93h16.06v7.32c.71-.18,1.14-.16,1.4-.36,5.84-4.36,12.58-6.09,19.67-6.83,8.79-.92,17.23.3,25.12,4.41,11.82,6.15,18.9,15.99,21.73,28.87,1.94,8.82,1.68,17.66-1.23,26.27-5.09,15.07-15.64,24.21-31.05,27.58-11.83,2.59-23.19,1.04-33.79-5.09-.28-.16-.56-.31-.85-.43-.14-.05-.31,0-.74,0-.08.88-.25,1.79-.25,2.71-.02,14.71,0,29.42-.02,44.14,0,.95-.11,1.91-.17,2.86ZM307.64,372.31c0,8.4.11,16.8-.07,25.2-.06,2.61.67,4.47,2.76,5.89.33.22.61.51.93.76,6.84,5.26,14.62,7.4,23.15,6.77,10.16-.74,17.67-5.54,22.1-14.85,2.05-4.31,3.07-8.89,3.46-13.63.92-11.03-.96-21.5-6.24-31.27-3.07-5.67-7.26-10.32-13.01-13.4-10.43-5.59-23.29-3.83-31.27,4.21-1.25,1.26-1.88,2.54-1.86,4.41.11,8.64.05,17.28.05,25.92Z"/><path class="cls-18" d="M639.22,415.25h-15.99c-.03-.94-.07-1.86-.07-2.78,0-16.48.01-32.96-.03-49.43-.01-4.64-.16-9.28-1.29-13.82-.25-1-.55-2-.91-2.97-2.24-6.05-6.71-9.14-13.02-9.71-4.61-.42-9.08.27-13.45,1.73-5.76,1.92-10.93,4.85-15.5,8.87-1.28,1.13-1.87,2.3-1.86,4.1.08,20.32.05,40.63.05,60.95,0,.94,0,1.88,0,2.99h-15.73c-.05-.05-.12-.1-.17-.15-.05-.06-.13-.12-.15-.19-.06-.39-.15-.78-.15-1.18.08-28,.16-55.99.26-83.99,0-.22.14-.43.25-.76h15.59c.23,3.93-.03,7.88.17,12.21.88-.45,1.45-.65,1.92-.98,7.56-5.33,15.89-8.84,24.97-10.53,6.43-1.19,12.88-1.28,19.28.22,6.3,1.49,10.61,5.27,12.92,11.36,1.8,4.77,2.51,9.76,2.7,14.79.22,5.67.19,11.36.2,17.03.02,13.12,0,26.24,0,39.35v2.86Z"/><path class="cls-18" d="M15.88,415.23H0v-86.28h15.88c0,2.07-.06,4.05.02,6.02.07,1.95-.34,3.96.4,6.24.95-.62,1.66-1.08,2.36-1.55,11.22-7.48,23.45-11.58,37.06-10.74,2.69.17,5.4.69,7.99,1.41,5.25,1.46,8.85,4.93,11.01,9.91,1.7,3.93,2.46,8.1,2.83,12.33.31,3.5.49,7.03.5,10.54.05,16.56.02,33.12.03,49.67,0,.71,0,1.42,0,2.46-5.39.25-10.61.06-16.12.13-.03-1.12-.08-2.05-.08-2.98,0-16.48-.01-32.96-.01-49.43,0-4.32-.09-8.64-1.03-12.88-.24-1.09-.54-2.17-.9-3.22-2.22-6.42-6.8-9.99-13.56-10.32-11.54-.57-21.16,3.91-29.55,11.5-.79.72-.98,1.55-.97,2.57.04,4.32.01,8.64.01,12.96,0,16.24,0,32.48,0,48.71,0,.93,0,1.87,0,2.96Z"/><path class="cls-5" d="M527,415.21h-15.21c-.05-4.43-.09-8.81-.14-13.66-.98.83-1.56,1.33-2.16,1.83-9.61,8.06-20.63,12.33-33.22,12.28-4.67-.02-9.23-.84-13.51-2.82-10.33-4.78-13.38-14.55-11.3-23.64,1.01-4.39,3.68-7.74,7.17-10.48,3.43-2.69,7.25-4.73,11.34-6.13,7.4-2.53,14.87-4.84,22.31-7.24,5.4-1.74,10.8-3.5,15.68-6.47,3.49-2.12,3.31-1.29,2.75-5.66-.41-3.22-1.07-6.49-2.15-9.54-2.7-7.57-8.2-11.3-16.2-11.53-5.07-.14-9.82,1.06-14.36,3.22-5.88,2.8-10.81,6.77-14.67,12.05-.24.32-.44.68-.72.96-.67.66-1.51.47-1.54-.43-.08-2.56-.12-5.12.04-7.67.04-.62.85-1.28,1.44-1.76,7.15-5.78,15.27-9.55,24.25-11.46,7.22-1.53,14.41-1.48,21.6.37,9.79,2.52,15.61,8.72,17.33,18.6.78,4.47,1.3,9.04,1.34,13.57.16,17.83.08,35.67.08,53.5,0,.62-.11,1.24-.18,2.1ZM511.05,362.65c-.93.39-1.43.58-1.91.8-3.48,1.6-6.91,3.31-10.43,4.77-4.49,1.87-9.08,3.49-13.59,5.32-3.41,1.38-6.64,3.11-9.57,5.38-6.83,5.3-8.35,13.34-6.43,20.41,1.31,4.8,4.46,7.82,9.19,9.2,3.85,1.12,7.74.97,11.62.24,8.49-1.61,15.03-6.33,20.37-12.93.77-.95.9-1.97.9-3.12-.02-9.11,0-18.21-.02-27.32,0-.78-.07-1.57-.13-2.75Z"/><path class="cls-17" d="M748.51,348.71c-.09-.6-.25-1.2-.27-1.8-.04-1.84.06-3.68-.04-5.52-.06-1.27.47-2.07,1.43-2.82,10.9-8.53,23.19-12.99,37.1-12.55,4.5.14,8.84,1.2,13.04,2.85,6.06,2.39,9.95,6.75,12.04,12.84,1.49,4.35,2.11,8.86,2.34,13.41.16,3.19.14,6.4.14,9.59.01,15.83,0,31.67,0,47.5v2.57c-1.72.59-11.89.74-15.33.24v-13.44c-.86.64-1.35.97-1.8,1.36-7.37,6.35-15.78,10.5-25.42,12.07-6.56,1.07-13.08.98-19.41-1.25-6.9-2.43-11.9-6.86-13.65-14.21-1.95-8.2.17-15.18,6.81-20.59,3.51-2.86,7.48-4.96,11.72-6.41,7.4-2.53,14.9-4.74,22.3-7.27,4.52-1.55,8.95-3.38,13.37-5.2,1.46-.6,2.77-1.58,4.15-2.39.84-.49,1.19-1.16,1.11-2.18-.35-4.32-.93-8.58-2.62-12.61-2.89-6.91-8.09-10.5-15.56-10.74-9.86-.32-17.98,3.76-25.04,10.26-1.64,1.5-2.97,3.34-4.44,5.02-.44.5-.89,1-1.33,1.5-.22-.08-.44-.16-.66-.24ZM798.19,362.51c-1.78.93-3.06,1.73-4.44,2.31-5.52,2.29-11.07,4.54-16.62,6.75-4.23,1.68-8.45,3.38-12.3,5.86-6.92,4.45-9.92,10.78-9.12,18.96.65,6.73,4.94,11.45,11.52,12.59,3.35.58,6.68.43,10.01-.21,8.31-1.62,14.76-6.18,20.04-12.63.8-.98,1.17-1.97,1.16-3.25-.05-9.27-.02-18.54-.03-27.81,0-.69-.1-1.37-.2-2.56Z"/><path class="cls-17" d="M183.12,415.21h-15.13c-.25-2.23-.09-4.45-.12-6.65-.03-2.15,0-4.3,0-6.87-.77.57-1.32.93-1.82,1.36-7.38,6.34-15.82,10.46-25.45,12-6.48,1.04-12.92.95-19.18-1.25-6.9-2.42-11.93-6.8-13.71-14.15-1.98-8.19.09-15.18,6.71-20.62,3.5-2.87,7.47-4.98,11.71-6.44,7.39-2.54,14.89-4.79,22.3-7.27,3.93-1.32,7.82-2.78,11.66-4.35,1.91-.78,3.65-1.97,5.48-2.94,1.29-.68,1.68-1.63,1.54-3.13-.38-4-.95-7.93-2.46-11.68-2.87-7.13-8.15-10.85-15.83-11.06-9.86-.27-17.96,3.84-25,10.36-1.63,1.51-2.95,3.35-4.42,5.04-.4.46-.81.9-1.39,1.53-.35-.63-.74-1-.75-1.39-.06-2.32,0-4.64-.05-6.96-.02-1.16.8-1.68,1.54-2.27,6.65-5.32,14.12-9.01,22.4-11.01,7.57-1.83,15.11-2.05,22.77-.23,10.59,2.51,16.52,9.16,18.26,19.7.55,3.3.99,6.67,1.01,10,.11,18.87.09,37.74.1,56.62,0,.46-.09.93-.16,1.63ZM167.25,362.85c-.64.08-.91.04-1.1.15-6.75,3.89-14.18,6.17-21.32,9.11-3.75,1.55-7.48,3.25-10.95,5.34-7.04,4.25-9.99,10.69-9.21,18.88.65,6.81,5.04,11.59,11.71,12.68,3.28.53,6.53.39,9.77-.23,8.22-1.59,14.64-6.05,19.9-12.42.91-1.1,1.37-2.18,1.36-3.66-.07-9.11-.03-18.22-.04-27.33,0-.77-.07-1.54-.11-2.51Z"/><path class="cls-13" d="M405.92,415.18v-127.12c5.16-.23,10.38-.35,15.76,0v126.94c-1.7.45-11.58.59-15.76.19Z"/><path class="cls-5" d="M675.1,334.09h-12.22v-4.91c1.07-.23,2.3-.45,3.51-.77,3.08-.82,6.23-1.46,9.22-2.56,6.19-2.28,10.55-6.47,12.55-12.91.56-1.82.63-1.8,3.07-1.46.03,1.83.06,3.71.07,5.59.01,1.92,0,3.84,0,5.76v5.82c2.19.59,4.26.22,6.3.29,2,.07,4,.01,6,.01s4.15,0,6.29,0c.63,1.73.5,3.34.07,5.2h-18.54c-.05,1.02-.11,1.8-.11,2.58,0,19.36-.02,38.72.02,58.08,0,2.23.12,4.49.53,6.67,1.4,7.42,8.61,10.68,15.21,6.96,2.66-1.5,4.5-3.79,5.89-6.47.43-.84.83-1.7,1.35-2.77,1.17.33,2.28.65,3.51,1-.14.64-.17,1.11-.34,1.53-4.02,10.22-11.22,14.54-23.11,13.85-1.19-.07-2.39-.23-3.56-.46-7.95-1.61-12.89-6.44-14.7-14.28-.66-2.85-.95-5.85-.96-8.79-.08-18.32-.04-36.64-.04-54.96v-2.99Z"/><path class="cls-12" d="M303.49,240.13c.67-1.07,1.15-1.79,1.58-2.54,4.3-7.29,8.59-14.59,12.88-21.89,2.07-3.52,2.57-3.73,7.07-2.74.41,13.69.81,27.47,1.2,41.43-2.53.63-4.9.38-7.25.22-.31-.02-.73-.59-.84-.99-.16-.52-.07-1.11-.08-1.67-.1-6.39-.19-12.79-.3-19.18-.01-.75-.1-1.5-.53-2.34-.38.65-.78,1.3-1.15,1.95-2.94,5.13-5.91,10.24-8.77,15.4-.79,1.42-1.68,2.26-3.37,1.99-.47-.08-.96-.05-1.44,0-1.21.12-1.89-.47-2.44-1.5-2.13-3.93-4.33-7.83-6.5-11.73-1.13-2.02-2.26-4.04-3.66-6.53-.14.99-.27,1.54-.28,2.09-.13,6.63-.24,13.27-.35,19.9q-.05,2.73-2.87,2.75c-1.28,0-2.56,0-3.84-.01-.96-.02-1.48-.49-1.43-1.49.01-.24,0-.48,0-.72.38-12.54.77-25.09,1.16-37.63.02-.63.13-1.26.21-1.97,1.49-.64,3.01-.39,4.48-.25.48.04,1.03.69,1.34,1.19,1.17,1.9,2.26,3.86,3.37,5.8,3.87,6.71,7.74,13.41,11.81,20.46Z"/><path class="cls-16" d="M254.79,369.27c.53,9.48-8.27,17.42-17.23,17.42-7.47,0-17.3-5.94-17.44-17.35-.11-9.58,7.75-17.25,17.37-17.39,10.01-.14,17.83,8.66,17.3,17.31Z"/><path class="cls-6" d="M365.65,212.07c10.5.03,18.84,6.2,21.22,15.98,3.75,15.41-7.63,28.78-24,27.04-7.85-.83-13.98-4.56-17.44-11.79-6.8-14.21,2.52-31.39,20.22-31.23ZM379.05,233.7c0-8.07-5.7-13.94-13.55-13.94-7.94,0-13.86,6-13.83,14.02.03,7.85,5.98,13.83,13.79,13.85,7.81.02,13.59-5.9,13.6-13.93Z"/><path class="cls-15" d="M463.12,247.53h20.44v6.78c-2.02.61-26.47.63-28.67.02v-41.49c.62-.09,1.23-.24,1.83-.24,8.23-.02,16.46-.02,24.69,0,2.07,0,2.13.09,2.16,2.18.02,1.57,0,3.15,0,5.04-6.98.14-13.65,0-20.46.09v9.9h17.69c.6,2.22.32,4.22.24,6.18-.02.39-.76.95-1.26,1.07-.75.18-1.59.06-2.39.06-4.71,0-9.41,0-14.28,0v10.42Z"/><path class="cls-12" d="M530.71,243.76c1.16.69,1.96,1.2,2.79,1.66,3.81,2.09,7.82,3.21,12.19,2.3,2.04-.42,3.48-1.57,3.98-3.67.47-2.02-.28-4.01-2.25-5.1-1.73-.95-3.65-1.57-5.51-2.27-2.31-.86-4.72-1.5-6.97-2.51-4.14-1.85-6.57-5.05-6.56-9.71,0-4.83,2.15-8.59,6.58-10.54,7.2-3.18,14.32-2.43,21.15,1.32,1.36.75,1.4,1.15.62,2.5-.87,1.5-1.81,2.96-2.79,4.55-.79-.37-1.37-.59-1.9-.89-3.09-1.76-6.43-2.4-9.92-2.03-1.16.12-2.39.45-3.38,1.03-2.59,1.51-2.64,4.9-.11,6.52,1.06.68,2.29,1.13,3.48,1.55,1.95.69,3.95,1.27,5.92,1.92.68.22,1.35.5,2.01.78,6,2.61,8.44,6.56,7.91,12.76-.47,5.36-4.21,9.57-10.03,10.77-6.64,1.38-13.03.41-18.97-2.97-2.17-1.24-2.23-1.62-.92-3.74.83-1.34,1.69-2.66,2.69-4.23Z"/><path class="cls-12" d="M419.5,242.85c.24-.59.43-1.01.58-1.44,3.2-8.94,6.38-17.89,9.59-26.83.71-1.99.76-1.98,2.93-1.99,2.05-.01,4.1,0,6.55,0-.38,1.14-.57,1.89-.86,2.59-5.18,12.46-10.37,24.92-15.57,37.37-.36.86-.48,2.06-1.65,2.13-1.41.08-2.86-.02-4.25-.24-.36-.06-.68-.82-.89-1.32-5.37-12.81-10.73-25.64-16.07-38.46-.21-.49-.26-1.05-.43-1.77,1.58-.53,3.09-.3,4.55-.28,5.16.06,3.98-.81,5.81,4.06,3.11,8.29,6.1,16.64,9.14,24.95.13.37.33.71.58,1.23Z"/><path class="cls-4" d="M261.37,212.6v41.82c-2.69.55-5.3.47-8.03.04-.04-.92-.1-1.63-.1-2.34,0-12.3,0-24.6,0-36.9,0-.48,0-.96.02-1.44.02-.78.46-1.18,1.21-1.18,2.21-.02,4.43,0,6.91,0Z"/><path class="cls-9" d="M510.11,254.44c-2.52.55-4.82.33-7.1.22-.41-.02-.9-.74-1.14-1.24-.19-.39-.05-.94-.05-1.42,0-12.22,0-24.44,0-36.66,0-.78.07-1.56.12-2.54,2.67-.4,5.17-.11,7.92-.22.47,4.79.16,9.39.22,13.98.06,4.63.01,9.27.01,13.9s0,9.24,0,13.98Z"/><path class="cls-11" d="M359.33,209.5q-2.41-4.59,1.8-6.58c2.52-1.19,5.04-2.4,7.57-3.57.7-.32,1.44-.56,2.43-.94.89,2.34,1.69,4.45,2.59,6.85-4.89,1.7-9.64,2.88-14.41,4.24Z"/><path class="cls-14" d="M379.05,233.7c0,8.02-5.78,13.95-13.6,13.93-7.81-.02-13.76-5.99-13.79-13.85-.03-8.01,5.89-14.01,13.83-14.02,7.85,0,13.55,5.87,13.55,13.94Z"/></g></svg>