<?xml version="1.0" encoding="UTF-8"?><svg id="Layer_2" xmlns="http://www.w3.org/2000/svg" width="183.12" height="164.71" viewBox="0 0 183.12 164.71"><defs><style>.cls-1{fill:#9ea2b6;}.cls-1,.cls-2,.cls-3,.cls-4,.cls-5{stroke-width:0px;}.cls-2{fill:#9da1b5;}.cls-3{fill:#081245;}.cls-4{fill:#faccb0;}.cls-5{fill:#f68139;}</style></defs><g id="Layer_1-2"><path class="cls-4" d="M128.16,164.4c0,.08,0,.16,0,.24H54.97c.01-.09.02-.18.04-.28.52.01,1.04.03,1.56.03,23.87,0,47.73,0,71.6,0Z"/><path class="cls-1" d="M36.72,164.39v.26c-11.95,0-23.9,0-35.86-.02-.29,0-.95.38-.84-.46.07-.02.14-.02.21-.01.28.08.56.24.85.24,11.88,0,23.76,0,35.65,0Z"/><path class="cls-2" d="M146.64,164.64c-.04-.06-.05-.13-.02-.2,8.75-.01,17.51-.03,26.26-.05,3.4,0,6.8-.03,10.19-.04.02.09.03.19.05.28h-36.48Z"/><path class="cls-3" d="M183.07,164.36c-3.4.01-6.79.04-10.19.04-8.75.02-17.51.03-26.26.05-1.83-4.06-3.69-8.1-5.5-12.17-16.32-36.7-32.63-73.4-48.95-110.1-.16-.36-.34-.71-.57-1.19-2.89,6.5-5.72,12.85-8.54,19.2-15.36,34.55-30.72,69.11-46.08,103.66-.08.18-.17.36-.26.54-11.88,0-23.76.01-35.65,0-.28,0-.56-.16-.85-.24C22.87,113.28,45.52,62.4,68.18,11.53c1.59-3.56,3.19-7.12,4.75-10.69.26-.59.54-.83,1.22-.82C85.79.03,97.42.04,109.06,0c.94,0,1.1.53,1.38,1.15,9.31,20.91,18.62,41.82,27.93,62.73,14.88,33.42,29.76,66.84,44.64,100.25.03.07.05.15.07.22Z"/><path class="cls-5" d="M128.16,164.4c-23.87,0-47.73,0-71.6,0-.52,0-1.04-.02-1.56-.03,0-2.83-.05-5.67,0-8.5,0-.61.25-1.24.5-1.81,9.05-20.36,18.11-40.72,27.17-61.07,2.93-6.59,5.87-13.18,8.9-20,.25.48.43.79.57,1.12,11.88,26.69,23.75,53.39,35.61,80.09.28.63.42,1.37.43,2.06.03,2.71-.01,5.42-.03,8.14Z"/></g></svg>